<svg version="1.2" xmlns="http://www.w3.org/2000/svg" viewBox="0 0 130 130" width="130" height="130">
	<title>LSB-svg</title>
	<defs>
		<radialGradient id="g1" cx="65" cy="65" r="65" gradientUnits="userSpaceOnUse">
			<stop offset=".9" stop-color="#ffffff" stop-opacity="0"/>
			<stop offset="1" stop-color="#ffffff" stop-opacity=".5"/>
		</radialGradient>
	</defs>
	<style>
		tspan { white-space:pre } 
		.s0 { opacity: .1;fill: #ffffff } 
		.s1 { fill: url(#g1) } 
		.s2 { fill: none;stroke: #ffffff } 
		.t3 { font-size: 77px;fill: #ffffff;font-weight: 800;font-family: "EncodeSansSemiCondensed-ExtraBold", "Encode Sans SemiCondensed ExBd" } 
	</style>
	<path id="Layer" class="s0" d="m65 129.5c-35.7 0-64.5-28.8-64.5-64.5 0-35.7 28.8-64.5 64.5-64.5 35.7 0 64.5 28.8 64.5 64.5 0 35.7-28.8 64.5-64.5 64.5z"/>
	<path id="Layer" class="s1" d="m65 129.5c-35.7 0-64.5-28.8-64.5-64.5 0-35.7 28.8-64.5 64.5-64.5 35.7 0 64.5 28.8 64.5 64.5 0 35.7-28.8 64.5-64.5 64.5z"/>
	<path id="Layer" class="s2" d="m65 129.5c-35.7 0-64.5-28.8-64.5-64.5 0-35.7 28.8-64.5 64.5-64.5 35.7 0 64.5 28.8 64.5 64.5 0 35.7-28.8 64.5-64.5 64.5z"/>
	<text id="LS" style="transform: matrix(1,0,0,1,21,94)" >
		<tspan x="0" y="0" class="t3">L</tspan><tspan  y="0" class="t3">S
</tspan>
	</text>
</svg>