<svg version="1.2" xmlns="http://www.w3.org/2000/svg" viewBox="0 0 107 56" width="107" height="56">
	<title>start-svg</title>
	<style>
		.s0 { opacity: .1;fill: #ffffff } 
		.s1 { fill: none;stroke: #ffffff } 
		.s2 { fill: #ffffff } 
	</style>
	<g id="Layer">
		<path id="Layer" class="s0" d="m0 28c0-15.5 12.5-28 28-28h51c15.5 0 28 12.5 28 28 0 15.5-12.5 28-28 28h-51c-15.5 0-28-12.5-28-28z"/>
	</g>
	<path id="Layer" class="s1" d="m0.5 28c0-15.2 12.3-27.5 27.5-27.5h51c15.2 0 27.5 12.3 27.5 27.5 0 15.2-12.3 27.5-27.5 27.5h-51c-15.2 0-27.5-12.3-27.5-27.5z"/>
	<path id="Rounded Rectangle 1 copy 2" class="s2" d="m33 12.8h40.9c0.6 0 1.2 0.5 1.2 1.2v1.9c0 0.7-0.6 1.3-1.2 1.3h-40.9c-0.7 0-1.3-0.6-1.3-1.3v-1.9c0-0.7 0.6-1.2 1.3-1.2zm0 12.8h40.9c0.6 0 1.2 0.6 1.2 1.3v1.9c0 0.7-0.6 1.3-1.2 1.3h-40.9c-0.7 0-1.3-0.6-1.3-1.3v-1.9c0-0.7 0.6-1.3 1.3-1.3zm0 12.9h40.9c0.6 0 1.2 0.5 1.2 1.2v2c0 0.7-0.6 1.2-1.2 1.2h-40.9c-0.7 0-1.3-0.5-1.3-1.2v-2c0-0.7 0.6-1.2 1.3-1.2z"/>
</svg>